<?xml version="1.0" encoding="UTF-8" standalone="no"?>
<svg width="26px" height="28px" viewBox="0 0 26 28" version="1.1" xmlns="http://www.w3.org/2000/svg" xmlns:xlink="http://www.w3.org/1999/xlink">
    <!-- Generator: Sketch 3.6.1 (26313) - http://www.bohemiancoding.com/sketch -->
    <title>Group 2</title>
    <desc>Created with Sketch.</desc>
    <defs></defs>
    <g id="Page-1" stroke="none" stroke-width="1" fill="none" fill-rule="evenodd">
        <g id="Standart-game" transform="translate(-174.000000, -564.000000)" fill="#565656">
            <g id="Group-2" transform="translate(174.000000, 564.000000)">
                <g id="Копия-people">
                    <path d="M20.037353,26.9786372 L16.9821772,26.9786372 L16.9821772,22.0898433 L12.0786137,22.0898433 L12.0786137,16.969482 L16.9821772,16.969482 L16.9821772,15.349731 C16.9821772,15.349731 15.6759232,14.6396522 14.8438462,14.5184615 C13.9253846,14.3384615 12.8153846,14.1492308 12.8153846,13.2307692 C12.8153846,12.31 13.9253846,12.6792308 14.8438462,11.0130769 C14.8438462,11.0130769 18.7207692,0.123076923 10.7869231,0.123076923 C2.66615385,0.303076923 6.54307692,11.2023077 6.54307692,11.2023077 C7.46153846,12.6792308 8.56923077,12.49 8.56923077,13.2307692 C8.56923077,14.1492308 7.46153846,14.3384615 6.54307692,14.5184615 C4.87461538,14.7076923 3.39538462,14.5184615 1.92769231,17.2946154 C1.18692308,18.9538462 0.0792307692,27.9953846 0.0792307692,27.9953846 L21.1440425,27.9953837 L20.037353,26.9786372 Z" id="Fill-3"></path>
                </g>
                <path d="M13.0317383,17.9625244 L18.043457,18.0172119 L18.1068115,13.012085 L20.9318848,13.0662842 L20.986084,17.916626 L26.0047607,17.9625244 L26.0020752,20.9222412 L21.0715332,21.0020752 L21.0715332,25.9608154 L18.1097412,25.9608154 L18.1097412,20.9630127 L13.0317383,20.9630127 L13.0317383,17.9625244 Z" id="Path-552"></path>
            </g>
        </g>
    </g>
</svg>