<?xml version="1.0" encoding="UTF-8" standalone="no"?>
<svg width="19px" height="21px" viewBox="0 0 19 21" version="1.1" xmlns="http://www.w3.org/2000/svg" xmlns:xlink="http://www.w3.org/1999/xlink">
    <!-- Generator: Sketch 3.6.1 (26313) - http://www.bohemiancoding.com/sketch -->
    <title>two123</title>
    <desc>Created with Sketch.</desc>
    <defs>
        <path id="path-1" d="M0.035,0.26289657 L0.035,20.999906 L18.6666667,20.999906 L18.6666667,0.26289657 L0.035,0.26289657 L0.035,0.26289657 Z"></path>
    </defs>
    <g id="Page-1" stroke="none" stroke-width="1" fill="none" fill-rule="evenodd">
        <g id="история" transform="translate(-9.000000, -32.000000)">
            <g id="two123" transform="translate(9.000000, 32.000000)">
                <mask id="mask-2" fill="white">
                    <use xlink:href="#path-1"></use>
                </mask>
                <g id="Clip-2"></g>
                <path d="M4.655,16.4453333 C2.95516667,15.078 1.86608333,12.9791667 1.86608333,10.62775 C1.86608333,7.14816667 4.24725,4.23616667 7.46725,3.40433333 L7.46725,1.48108333 C3.206,2.345 0,6.11158333 0,10.62775 C0,13.4166667 1.22616667,15.9185833 3.16516667,17.62775 C4.66666667,19.0271667 5.60116667,17.1605 4.655,16.4453333 L4.655,16.4453333 Z M15.4221667,3.55716667 C14.46725,2.69383333 13.0655,4.095 13.98425,4.78741667 C15.6998333,6.15475 16.8005833,8.26233333 16.8005833,10.62775 C16.8005833,14.105 14.4194167,17.0193333 11.1994167,17.8488333 L11.1994167,19.7744167 C15.4606667,18.9081667 18.6666667,15.1415833 18.6666667,10.62775 C18.6666667,7.80033333 17.409,5.26866667 15.4221667,3.55716667 L15.4221667,3.55716667 Z M8.29208333,5.01783333 L11.3295,3.19725 C11.7716667,2.933 11.7716667,2.50191667 11.3318333,2.23533333 L8.26466667,0.380916667 C7.82483333,0.114333333 7.46958333,0.314416667 7.47191667,0.8295 L7.48766667,4.56458333 C7.48766667,5.07908333 7.84991667,5.28208333 8.29208333,5.01783333 L8.29208333,5.01783333 Z M10.402,16.247 L7.33483333,18.102 C6.895,18.3685833 6.895,18.7990833 7.33716667,19.0656667 L10.3745833,20.8839167 C10.81675,21.1481667 11.179,20.94575 11.1813333,20.4306667 L11.1970833,16.6961667 C11.1970833,16.1810833 10.8418333,15.9804167 10.402,16.247 L10.402,16.247 Z" id="Fill-1" fill="#000000" mask="url(#mask-2)"></path>
            </g>
        </g>
    </g>
</svg>