<?xml version="1.0" encoding="UTF-8" standalone="no"?>
<svg width="29px" height="29px" viewBox="0 0 29 29" version="1.1" xmlns="http://www.w3.org/2000/svg" xmlns:xlink="http://www.w3.org/1999/xlink">
    <!-- Generator: Sketch 3.6.1 (26313) - http://www.bohemiancoding.com/sketch -->
    <title>Group 8</title>
    <desc>Created with Sketch.</desc>
    <defs>
        <linearGradient x1="50%" y1="0%" x2="50%" y2="100%" id="linearGradient-1">
            <stop stop-color="#FF3A00" offset="0%"></stop>
            <stop stop-color="#FF4100" offset="100%"></stop>
        </linearGradient>
        <path id="path-2" d="M0.00554621849,0.0824079498 L0.00554621849,21.9080532 L21.9172884,21.9080532 L21.9172884,0.0824079498 L0.00554621849,0.0824079498 L0.00554621849,0.0824079498 Z"></path>
    </defs>
    <g id="Page-1" stroke="none" stroke-width="1" fill="none" fill-rule="evenodd">
        <g id="Манч" transform="translate(-15.000000, -136.000000)">
            <g id="Group-8" transform="translate(15.000000, 136.000000)">
                <g id="Bluetooth-Icon" fill="url(#linearGradient-1)">
                    <rect id="Rectangle-1187" x="0" y="0" width="29" height="29" rx="6"></rect>
                </g>
                <g id="war" transform="translate(3.500000, 3.500000)">
                    <mask id="mask-3" fill="white">
                        <use xlink:href="#path-2"></use>
                    </mask>
                    <g id="Clip-2"></g>
                    <path d="M21.9111681,21.4883849 L21.2699328,18.1174142 C21.1879412,17.6867113 20.9774622,17.2900669 20.6657647,16.9797657 L10.8176218,7.17246025 L9.36109244,8.62298745 L16.7520756,15.983046 C16.9686555,16.1988117 16.9686555,16.5482343 16.7520756,16.764 C16.5350336,16.9797657 16.1840504,16.9797657 15.9673782,16.764 L8.57676471,9.40430962 L7.12014286,10.8544686 L16.9686555,20.6617741 C17.2799832,20.9720753 17.6782017,21.1816736 18.1111765,21.2633222 L21.4959412,21.9019665 C21.6114874,21.9235063 21.7302689,21.8871464 21.8132773,21.8044854 C21.8963782,21.7218243 21.9327983,21.6034477 21.9111681,21.4883849 L21.9111681,21.4883849 Z" id="Fill-1" fill="#FFE3CD" mask="url(#mask-3)"></path>
                    <path d="M11.922521,2.77779916 L11.2090924,2.0672636 C10.6071429,1.46820084 9.58710084,1.64337238 9.22493277,2.41493724 L7.75463025,5.54722176 L5.4797563,3.28186611 C5.62063025,2.43693724 5.36457983,1.5390795 4.70994118,0.887179916 C3.6324958,-0.185849372 1.88552941,-0.185849372 0.808084034,0.887179916 C-0.269361345,1.96011715 -0.269361345,3.69968201 0.808084034,4.7727113 C1.46272269,5.42461088 2.36435294,5.67949791 3.21292437,5.53930544 L5.48770588,7.80456904 L2.34235294,9.26871967 C1.57031933,9.62799163 1.39015966,10.6437657 1.99312605,11.2445774 L2.70664706,11.955113 C3.18694958,12.4333138 3.96573109,12.4333138 4.44640336,11.955113 L11.922521,4.5101841 C12.4028235,4.03161506 12.4028235,3.256 11.922521,2.77779916 L11.922521,2.77779916 Z" id="Fill-3" fill="#FFE3CD" mask="url(#mask-3)"></path>
                </g>
            </g>
        </g>
    </g>
</svg>