<?xml version="1.0" encoding="UTF-8" standalone="no"?>
<svg width="20px" height="29px" viewBox="0 0 20 29" version="1.1" xmlns="http://www.w3.org/2000/svg" xmlns:xlink="http://www.w3.org/1999/xlink">
    <!-- Generator: Sketch 3.6.1 (26313) - http://www.bohemiancoding.com/sketch -->
    <title>Icon Copy</title>
    <desc>Created with Sketch.</desc>
    <defs></defs>
    <g id="Page-1" stroke="none" stroke-width="1" fill="none" fill-rule="evenodd">
        <g id="Standart-game" transform="translate(-340.000000, -240.000000)" fill="#FFFFFF">
            <g id="Group-5" transform="translate(-1.000000, 87.000000)">
                <g id="Group-6" transform="translate(326.000000, 145.000000)">
                    <path d="M16,13.3023256 L34,13.3023256 L32.6591062,34.3408456 C32.5712343,35.7195492 31.3725621,36.8372093 30.0062169,36.8372093 L19.9937831,36.8372093 C18.6165047,36.8372093 17.428661,35.7179058 17.3408938,34.3408456 L16,13.3023256 Z M15,11.2318333 C15,10.6799489 15.4500881,10.2325581 16.0087848,10.2325581 L19.9924316,10.2325581 C20.2727539,10.2325581 20.6278892,10.0580737 20.7963517,9.8282333 L21.7036483,8.59037135 C21.8673188,8.36706891 22.2278805,8.18604651 22.4910052,8.18604651 L27.5089948,8.18604651 C27.7801695,8.18604651 28.1278892,8.36053094 28.2963517,8.59037135 L29.2036483,9.8282333 C29.3673188,10.0515357 29.7224185,10.2325581 30.0075684,10.2325581 L33.9912152,10.2325581 C34.5483517,10.2325581 35,10.6867454 35,11.2318333 L35,11.7836664 C35,12.0572701 34.7753906,12.2790698 34.5056152,12.2790698 L15.4943848,12.2790698 C15.2213436,12.2790698 15,12.0600572 15,11.7836664 L15,11.2318333 Z M24.5,15.3488372 L25.5,15.3488372 L25.5,32.744186 L24.5,32.744186 L24.5,15.3488372 Z M29,15.3488372 L30,15.3488372 L29,32.744186 L28,32.744186 L29,15.3488372 Z M20,15.3488372 L21,15.3488372 L22,32.744186 L21,32.744186 L20,15.3488372 Z" id="Icon-Copy"></path>
                </g>
            </g>
        </g>
    </g>
</svg>