<?xml version="1.0" encoding="UTF-8" standalone="no"?>
<svg width="26px" height="27px" viewBox="0 0 26 27" version="1.1" xmlns="http://www.w3.org/2000/svg" xmlns:xlink="http://www.w3.org/1999/xlink">
    <!-- Generator: Sketch 3.6.1 (26313) - http://www.bohemiancoding.com/sketch -->
    <title>interface copy</title>
    <desc>Created with Sketch.</desc>
    <defs></defs>
    <g id="Page-1" stroke="none" stroke-width="1" fill="none" fill-rule="evenodd">
        <g id="Standart-game" transform="translate(-290.000000, -240.000000)" fill="#FFFFFF">
            <g id="Group-5" transform="translate(-1.000000, 87.000000)">
                <g id="Group-4" transform="translate(276.000000, 145.000000)">
                    <path d="M40.602,15.140093 C40.602,15.140093 40.602,13.5008372 39,11.871814 C37.398,10.2325581 35.96,10.2325581 35.96,10.2325581 L34.204,12.0314419 L34.204,8.59330233 L15,8.59330233 L15,34.7906977 L34.204,34.7906977 L34.204,21.6868837 L40.602,15.140093 Z M25.078,27.2595349 L24.118,26.2772093 L24.602,24.4783256 L27,26.932093 L25.078,27.2595349 Z M26.524,24.1508837 L25.562,23.1665116 L33.882,14.6530233 C34.204,14.8126512 34.524,15.140093 34.844,15.4675349 L26.524,24.1508837 Z M37.562,12.6863256 L36.118,14.3255814 C35.796,13.9981395 35.476,13.8303256 35.156,13.5008372 L36.602,12.0314419 C36.758,12.1992558 37.078,12.3588837 37.562,12.6863256 L37.562,12.6863256 Z M32.602,33.1514419 L16.602,33.1514419 L16.602,10.2325581 L32.602,10.2325581 L32.602,13.6686512 L23.156,23.3261395 L21.398,30.0407442 L27.96,28.243907 L32.602,23.3261395 L32.602,33.1514419 Z" id="interface-copy"></path>
                </g>
            </g>
        </g>
    </g>
</svg>