<?xml version="1.0" encoding="UTF-8" standalone="no"?>
<svg width="21px" height="28px" viewBox="0 0 21 28" version="1.1" xmlns="http://www.w3.org/2000/svg" xmlns:xlink="http://www.w3.org/1999/xlink">
    <!-- Generator: Sketch 3.6.1 (26313) - http://www.bohemiancoding.com/sketch -->
    <title>Копия nature Copy</title>
    <desc>Created with Sketch.</desc>
    <defs>
        <path id="path-1" d="M10.0208454,0.0981772152 L0.0212658228,0.0981772152 L0.0212658228,27.9996456 L20.0204249,27.9996456 L20.0204249,0.0981772152 L10.0208454,0.0981772152 L10.0208454,0.0981772152 Z"></path>
    </defs>
    <g id="Page-1" stroke="none" stroke-width="1" fill="none" fill-rule="evenodd">
        <g id="Копия-nature-Copy">
            <mask id="mask-2" fill="white">
                <use xlink:href="#path-1"></use>
            </mask>
            <g id="Clip-2"></g>
            <path d="M16.9931646,0.0981772152 C16.9931646,0.0981772152 14.6978734,2.32577215 12.215443,3.22283544 C-6.17063291,9.87407595 1.58394937,22.8327595 1.83594937,22.8756456 C1.83594937,22.8756456 2.86734177,21.0801013 4.26025316,20.055443 C13.0972658,13.559443 14.8942278,6.08060759 14.8942278,6.08060759 C14.8942278,6.08060759 12.910481,15.0795949 5.04779747,20.6785316 C3.31179747,21.9147848 2.1361519,24.9579241 1.63782278,27.9996456 C1.63782278,27.9996456 2.87017722,27.5027342 3.39898734,27.3684051 C3.60526582,26.0212152 4.03731646,24.7310886 4.76673418,23.5791899 C15.7540759,24.8873924 19.3536709,16.0337215 19.8232911,12.9462785 C20.9333671,5.65422785 16.9931646,0.0981772152 16.9931646,0.0981772152 L16.9931646,0.0981772152 Z" id="Fill-1" fill="#1EDC00" mask="url(#mask-2)"></path>
        </g>
    </g>
</svg>