<?xml version="1.0" encoding="UTF-8" standalone="no"?>
<svg width="21px" height="28px" viewBox="0 0 21 28" version="1.1" xmlns="http://www.w3.org/2000/svg" xmlns:xlink="http://www.w3.org/1999/xlink">
    <!-- Generator: Sketch 3.6.1 (26313) - http://www.bohemiancoding.com/sketch -->
    <title>nature</title>
    <desc>Created with Sketch.</desc>
    <defs></defs>
    <g id="Page-1" stroke="none" stroke-width="1" fill="none" fill-rule="evenodd">
        <path d="M16.2438997,7.80811019 C14.1985395,4.53120557 11.9235866,1.69510493 10.749663,0.295999687 C10.5924,0.108740169 10.3568817,0 10.1078191,0 C9.85903876,0 9.62314419,0.108740169 9.46635142,0.295999687 C8.29205168,1.69547014 6.01747494,4.5326664 3.97202067,7.80984492 C1.33626563,12.0332729 0,15.5251927 0,18.1882769 C0,23.5986253 4.53419845,28 10.1078191,28 C15.6814398,28 20.2156382,23.5986253 20.2156382,18.1882769 C20.2160145,15.5233667 18.8793726,12.0310817 16.2438997,7.80811019 L16.2438997,7.80811019 Z M11.4947814,24.3861013 C10.9047628,24.5326403 10.2918884,24.6068685 9.67355866,24.6068685 C5.89727028,24.6068685 2.82499742,21.8364137 2.82499742,18.4311391 C2.82499742,17.6090597 3.04875866,16.6486585 3.48932093,15.5765042 C3.56353178,15.3953619 3.77553592,15.2922824 3.98453023,15.3358333 C4.1936186,15.379658 4.33395142,15.5566005 4.31231835,15.7487903 C4.28654677,15.978505 4.27337881,16.2031982 4.27337881,16.4161134 C4.27337881,20.1216789 7.34969612,23.2248366 11.4286594,23.6338677 C11.6318222,23.6542279 11.790214,23.8018626 11.8062977,23.9855613 C11.8224755,24.1692601 11.6917364,24.337255 11.4947814,24.3861013 L11.4947814,24.3861013 Z" id="nature" fill="#0085FF"></path>
    </g>
</svg>