<?xml version="1.0" encoding="UTF-8" standalone="no"?>
<svg width="25px" height="28px" viewBox="0 0 25 28" version="1.1" xmlns="http://www.w3.org/2000/svg" xmlns:xlink="http://www.w3.org/1999/xlink">
    <!-- Generator: Sketch 3.6.1 (26313) - http://www.bohemiancoding.com/sketch -->
    <title>Fill 1</title>
    <desc>Created with Sketch.</desc>
    <defs></defs>
    <g id="Page-1" stroke="none" stroke-width="1" fill="none" fill-rule="evenodd">
        <path d="M6.82038248,27.9047591 C4.96073284,24.0348321 5.95122433,21.8175182 7.38058686,19.7282141 C8.9458618,17.4403893 9.34930705,15.1757275 9.34930705,15.1757275 C9.34930705,15.1757275 10.5796039,16.7753382 10.087526,19.2771484 C12.2612389,16.8572944 12.671565,13.0018102 12.3434676,11.5253723 C17.2570929,14.9590852 19.3570248,22.3942092 16.5268448,27.9047591 C31.5793314,19.387854 20.2711465,6.64444769 18.3023581,5.2090219 C18.9586209,6.64444769 19.0831562,9.07438443 17.757346,10.2538589 C15.5131903,1.74417518 9.96435328,0 9.96435328,0 C10.6206161,4.38857421 7.58551143,9.18747445 4.65900048,12.7731776 C4.55599319,11.0232117 4.4468545,9.81580535 3.52666958,8.14111922 C3.32010997,11.3201752 0.890718246,13.9113674 0.232616057,17.0965547 C-0.658342581,21.4098491 0.900324086,24.5681265 6.82038248,27.9047591 L6.82038248,27.9047591 Z" id="Fill-1" fill="#FF2700"></path>
    </g>
</svg>