<?xml version="1.0" encoding="UTF-8" standalone="no"?>
<svg width="28px" height="28px" viewBox="0 0 28 28" version="1.1" xmlns="http://www.w3.org/2000/svg" xmlns:xlink="http://www.w3.org/1999/xlink">
    <!-- Generator: Sketch 3.6.1 (26313) - http://www.bohemiancoding.com/sketch -->
    <title>Копия black 2</title>
    <desc>Created with Sketch.</desc>
    <defs></defs>
    <g id="Page-1" stroke="none" stroke-width="1" fill="none" fill-rule="evenodd">
        <g id="Копия-black-2">
            <path d="M13.9491579,5.35954386 C14.9930175,5.35954386 15.9946316,5.54547368 16.9223158,5.88417544 C16.9684912,5.03042105 16.8513333,3.48378947 15.5792982,2.54063158 C13.7504561,1.18484211 15.0620351,0.100701754 15.0620351,0.100701754 C15.0620351,0.100701754 11.6897544,0.821333333 12.1463509,5.54940351 C12.7277193,5.42561404 13.331193,5.35954386 13.9491579,5.35954386 L13.9491579,5.35954386 Z" id="Fill-1" fill="#FFDA00"></path>
            <path d="M25.4593684,12.4209474 C24.5152281,11.1486667 22.9698246,11.0315088 22.1158246,11.0776842 C22.4545263,12.0053684 22.6397193,13.006 22.6397193,14.0498596 C22.6397193,14.668807 22.5734035,15.2712982 22.4505965,15.8536491 C27.1786667,16.3095088 27.8992982,12.9369825 27.8992982,12.9369825 C27.8992982,12.9369825 26.8151579,14.2495439 25.4593684,12.4209474 L25.4593684,12.4209474 Z" id="Fill-2" fill="#FFDA00"></path>
            <path d="M12.8362807,28 C12.8362807,28 16.2095439,27.279614 15.7529474,22.5515439 C15.1705965,22.6753333 14.5678596,22.7414035 13.9491579,22.7414035 C12.9052982,22.7414035 11.9046667,22.5562105 10.9767368,22.2165263 C10.930807,23.0705263 11.0477193,24.6171579 12.32,25.5603158 C14.1478596,26.9158596 12.8362807,28 12.8362807,28 L12.8362807,28 Z" id="Fill-3" fill="#FFDA00"></path>
            <path d="M2.43992982,15.68 C3.38284211,16.9522807 4.92947368,17.0701754 5.78347368,17.0232632 C5.44378947,16.0953333 5.25859649,15.0947018 5.25859649,14.0508421 C5.25859649,13.4321404 5.32491228,12.8296491 5.44870175,12.2472982 C0.720631579,11.7904561 0,15.1639649 0,15.1639649 C0,15.1639649 1.08414035,13.852386 2.43992982,15.68 L2.43992982,15.68 Z" id="Fill-4" fill="#FFDA00"></path>
            <path d="M21.2321053,9.31712281 C24.9030526,6.29582456 23.0263158,3.39929825 23.0263158,3.39929825 C23.0263158,3.39929825 23.1874386,5.09378947 20.9356491,4.75975439 C19.3678947,4.52666667 18.1906667,5.53884211 17.6198596,6.17596491 C19.0974737,6.86663158 20.3486316,7.96133333 21.2321053,9.31712281 L21.2321053,9.31712281 Z" id="Fill-5" fill="#FFDA00"></path>
            <path d="M6.66621053,9.31712281 C7.55066667,7.96133333 8.80182456,6.86663158 10.2784561,6.17596491 C9.70838596,5.53884211 8.53115789,4.52666667 6.96266667,4.75975439 C4.71185965,5.09378947 4.87298246,3.39929825 4.87298246,3.39929825 C4.87298246,3.39929825 2.99624561,6.29582456 6.66621053,9.31712281 L6.66621053,9.31712281 Z" id="Fill-6" fill="#FFDA00"></path>
            <path d="M6.96364912,23.3409474 C8.53115789,23.5742807 9.70838596,22.5611228 10.2794386,21.9249825 C8.80182456,21.2340702 7.55066667,20.1393684 6.66719298,18.7838246 C2.99624561,21.8058596 4.87298246,24.7016491 4.87298246,24.7016491 C4.87298246,24.7016491 4.71185965,23.0071579 6.96364912,23.3409474 L6.96364912,23.3409474 Z" id="Fill-7" fill="#FFDA00"></path>
            <path d="M21.2321053,18.7838246 C20.3486316,20.1393684 19.0974737,21.2340702 17.6198596,21.9249825 C18.1906667,22.5611228 19.3678947,23.5742807 20.9356491,23.3409474 C23.1874386,23.0071579 23.0263158,24.7016491 23.0263158,24.7016491 C23.0263158,24.7016491 24.9030526,21.8058596 21.2321053,18.7838246 L21.2321053,18.7838246 Z" id="Fill-8" fill="#FFDA00"></path>
            <path d="M20.6075088,18.308807 C21.1026667,17.5365965 21.4671579,16.6720351 21.6697895,15.7472982 C21.7896491,15.2003158 21.854,14.633193 21.854,14.0508421 C21.854,13.2354035 21.7302105,12.4487018 21.5017895,11.7089123 C21.2898246,11.0248772 20.9855088,10.3821053 20.6075088,9.79189474 C19.8716491,8.64463158 18.8489123,7.69950877 17.6380351,7.0594386 C17.2111579,6.83322807 16.7602105,6.64410526 16.2910877,6.49821053 C15.5503158,6.26905263 14.7645965,6.14624561 13.9491579,6.14624561 C13.366807,6.14624561 12.7996842,6.21035088 12.2529474,6.33045614 C11.5487719,6.48494737 10.8799649,6.73129825 10.2600351,7.0594386 C9.05038596,7.69950877 8.02764912,8.64463158 7.29178947,9.79189474 C6.79663158,10.5643509 6.43214035,11.4286667 6.22950877,12.3536491 C6.10964912,12.9006316 6.04431579,13.4675088 6.04431579,14.0508421 C6.04431579,14.8655439 6.16810526,15.6522456 6.39750877,16.3920351 C6.60947368,17.0750877 6.91280702,17.7188421 7.29178947,18.308807 C8.02666667,19.4563158 9.05038596,20.4014386 10.2600351,21.0412632 C10.6881404,21.2677193 11.1381053,21.4568421 11.6082105,21.6024912 C12.3477544,21.8318947 13.1347018,21.9547018 13.9491579,21.9547018 C14.5324912,21.9547018 15.099614,21.8903509 15.6463509,21.7704912 C16.3495439,21.6169825 17.0183509,21.3694035 17.6380351,21.0412632 C18.8489123,20.4014386 19.8716491,19.4563158 20.6075088,18.308807 L20.6075088,18.308807 Z" id="Fill-9" fill="#FFDB00"></path>
        </g>
    </g>
</svg>