<?xml version="1.0" encoding="UTF-8" standalone="no"?>
<svg width="29px" height="29px" viewBox="0 0 29 29" version="1.1" xmlns="http://www.w3.org/2000/svg" xmlns:xlink="http://www.w3.org/1999/xlink">
    <!-- Generator: Sketch 3.6.1 (26313) - http://www.bohemiancoding.com/sketch -->
    <title>Bluetooth Icon</title>
    <desc>Created with Sketch.</desc>
    <defs>
        <linearGradient x1="50%" y1="0%" x2="50%" y2="100%" id="linearGradient-1">
            <stop stop-color="#007AFF" offset="0%"></stop>
            <stop stop-color="#007AFF" offset="100%"></stop>
        </linearGradient>
        <rect id="path-2" x="0" y="0" width="29" height="29" rx="6"></rect>
    </defs>
    <g id="Page-1" stroke="none" stroke-width="1" fill="none" fill-rule="evenodd">
        <g id="Standart-game" transform="translate(-15.000000, -95.000000)">
            <g id="Bluetooth-Icon" transform="translate(15.000000, 95.000000)">
                <g id="Копия-people-2">
                    <mask id="mask-3" fill="white">
                        <use xlink:href="#path-2"></use>
                    </mask>
                    <use id="Mask" fill="url(#linearGradient-1)" xlink:href="#path-2"></use>
                    <path d="M10.398,15.078 C11.36,16.68 12.64,16.358 12.64,17.476 C12.64,18.438 11.524,18.758 10.398,18.922 C8.64,18.922 7.04,18.602 5.438,21.476 C4.476,23.242 4,29 4,29 L25.922,29 C25.922,29 25.438,23.242 24.64,21.476 C23.04,18.438 21.438,18.922 19.68,18.758 C18.562,18.602 17.438,18.28 17.438,17.32 C17.438,16.358 18.718,16.68 19.68,14.922 C19.68,15.078 24,3.398 15.04,3.398 C6.078,3.398 10.398,15.078 10.398,15.078 Z" fill="#D7EAFF" mask="url(#mask-3)"></path>
                </g>
            </g>
        </g>
    </g>
</svg>