<?xml version="1.0" encoding="UTF-8" standalone="no"?>
<svg width="32px" height="28px" viewBox="0 0 32 28" version="1.1" xmlns="http://www.w3.org/2000/svg" xmlns:xlink="http://www.w3.org/1999/xlink">
    <!-- Generator: Sketch 3.6.1 (26313) - http://www.bohemiancoding.com/sketch -->
    <title>casino</title>
    <desc>Created with Sketch.</desc>
    <defs></defs>
    <g id="Page-1" stroke="none" stroke-width="1" fill="none" fill-rule="evenodd">
        <g id="основной-экран" transform="translate(-172.000000, -564.000000)" fill="#FFFFFF">
            <g id="casino" transform="translate(172.000000, 564.000000)">
                <path d="M14.3498632,12.9127427 L14.3498632,1.48144625 C14.3498632,0.676651466 13.6953746,0.0221628664 12.8905798,0.0221628664 L1.45928339,0.0221628664 C0.654488599,0.0221628664 0,0.676651466 0,1.48144625 L0,12.9127427 C0,13.7171726 0.654488599,14.3720261 1.45928339,14.3720261 L12.8905798,14.3720261 C13.6953746,14.3720261 14.3498632,13.7175375 14.3498632,12.9127427 L14.3498632,12.9127427 Z M3.18652769,12.6897459 C2.35710749,12.6897459 1.68228013,12.0149186 1.68228013,11.1855896 C1.68228013,10.3558046 2.35710749,9.6810684 3.18652769,9.6810684 C4.0162215,9.6810684 4.69104886,10.3558046 4.69104886,11.1855896 C4.69104886,12.0149186 4.0162215,12.6897459 3.18652769,12.6897459 L3.18652769,12.6897459 Z M3.18652769,4.71321173 C2.35710749,4.71321173 1.68228013,4.03838436 1.68228013,3.20869055 C1.68228013,2.37927036 2.35710749,1.7045342 3.18652769,1.7045342 C4.0162215,1.7045342 4.69104886,2.37927036 4.69104886,3.20869055 C4.69104886,4.03838436 4.0162215,4.71321173 3.18652769,4.71321173 L3.18652769,4.71321173 Z M7.27507492,8.58870358 C6.4452899,8.58870358 5.77055375,7.91360261 5.77055375,7.08418241 C5.77055375,6.25476221 6.4452899,5.58002606 7.27507492,5.58002606 C8.10440391,5.58002606 8.77923127,6.25476221 8.77923127,7.08418241 C8.77923127,7.91360261 8.10440391,8.58870358 7.27507492,8.58870358 L7.27507492,8.58870358 Z M11.1633355,12.6897459 C10.3336417,12.6897459 9.65881433,12.0149186 9.65881433,11.1855896 C9.65881433,10.3558046 10.3336417,9.6810684 11.1633355,9.6810684 C11.9927557,9.6810684 12.6675831,10.3558046 12.6675831,11.1855896 C12.6675831,12.0149186 11.9927557,12.6897459 11.1633355,12.6897459 L11.1633355,12.6897459 Z M11.1633355,4.71321173 C10.3336417,4.71321173 9.65881433,4.03838436 9.65881433,3.20869055 C9.65881433,2.37927036 10.3336417,1.7045342 11.1633355,1.7045342 C11.9927557,1.7045342 12.6675831,2.37927036 12.6675831,3.20869055 C12.6675831,4.03838436 11.9927557,4.71321173 11.1633355,4.71321173 L11.1633355,4.71321173 Z" id="Fill-1"></path>
                <path d="M31.1194919,16.3820977 C31.0293811,16.0023192 30.7974463,15.6806384 30.4664625,15.4767948 L20.7353225,9.47904886 C20.5058502,9.33758958 20.2421759,9.26316612 19.9724821,9.26316612 C19.4601824,9.26316612 18.9949446,9.5217329 18.7273485,9.9556873 L12.7295114,19.6869186 C12.3073225,20.3719609 12.5214723,21.2726124 13.206241,21.6951661 L22.9377459,27.6926384 C23.1668534,27.8340977 23.4308013,27.908886 23.7001303,27.908886 C24.212886,27.908886 24.6781238,27.6498632 24.9457199,27.2159088 L30.9431922,17.4847687 C31.1473094,17.153785 31.2096026,16.762241 31.1194919,16.3820977 L31.1194919,16.3820977 Z M19.0700977,13.4453811 C18.9774332,13.0545668 19.0422801,12.6508925 19.2532378,12.3085081 C19.529316,11.8606906 20.0085081,11.5934593 20.5350358,11.5934593 C20.8129381,11.5934593 21.0855505,11.6708013 21.3231401,11.8171857 C22.0292508,12.2525993 22.249785,13.1810684 21.8144625,13.8871792 C21.5382932,14.3349967 21.059101,14.6025016 20.5325733,14.6025016 C20.254671,14.6025016 19.9821498,14.524886 19.7444691,14.3787752 C19.4024495,14.1679088 19.1630358,13.8365603 19.0700977,13.4453811 L19.0700977,13.4453811 Z M20.5172508,18.8895114 C20.4243127,18.4986971 20.4894332,18.0950228 20.7000261,17.7530033 C20.9761042,17.3051857 21.4552964,17.0376808 21.9819153,17.0376808 C22.2597264,17.0376808 22.5323388,17.1149316 22.7699283,17.2614072 C23.1119479,17.4722736 23.3517264,17.8036221 23.4443909,18.1948013 C23.537329,18.5856156 23.4721173,18.9892899 23.2612508,19.3313094 C22.9855375,19.779127 22.5063453,20.0467231 21.9797264,20.0467231 C21.7014593,20.0467231 21.4293029,19.9690163 21.1913485,19.8229967 C20.849329,19.6120391 20.6099153,19.2806906 20.5172508,18.8895114 L20.5172508,18.8895114 Z M24.4198306,24.8630879 C24.1437524,25.3109967 23.6645603,25.5781368 23.1379414,25.5781368 C22.8601303,25.5781368 22.5875179,25.500886 22.3499283,25.3544104 C22.0079088,25.143544 21.7681303,24.8121954 21.6754658,24.4213811 C21.5825277,24.030202 21.6477394,23.6265277 21.8586059,23.2845081 C22.1344104,22.8366906 22.6135114,22.5690945 23.1401303,22.5690945 C23.4183974,22.5690945 23.6909186,22.6468013 23.9285081,22.7931857 C24.6347101,23.2282345 24.8548795,24.1569772 24.4198306,24.8630879 L24.4198306,24.8630879 Z" id="Fill-3"></path>
            </g>
        </g>
    </g>
</svg>