<?xml version="1.0" encoding="UTF-8" standalone="no"?>
<svg width="29px" height="29px" viewBox="0 0 29 29" version="1.1" xmlns="http://www.w3.org/2000/svg" xmlns:xlink="http://www.w3.org/1999/xlink">
    <!-- Generator: Sketch 3.6.1 (26313) - http://www.bohemiancoding.com/sketch -->
    <title>Group 9</title>
    <desc>Created with Sketch.</desc>
    <defs>
        <linearGradient x1="50%" y1="0%" x2="50%" y2="100%" id="linearGradient-1">
            <stop stop-color="#58DE00" offset="0%"></stop>
            <stop stop-color="#22DA00" offset="100%"></stop>
        </linearGradient>
    </defs>
    <g id="Page-1" stroke="none" stroke-width="1" fill="none" fill-rule="evenodd">
        <g id="Standart-game" transform="translate(-15.000000, -139.000000)">
            <g id="Group-9" transform="translate(15.000000, 139.000000)">
                <g id="Bluetooth-Icon" fill="url(#linearGradient-1)">
                    <rect id="Rectangle-1187" x="0" y="0" width="29" height="29" rx="6"></rect>
                </g>
                <path d="M20.9726115,7 L8.02738846,7 C7.46078373,7 7,7.46236915 7,8.03092341 L7,20.9690766 C7,21.5373731 7.46078373,22 8.02738846,22 L20.9726115,22 C21.5389594,22 22,21.5373731 22,20.9690766 L22,8.03092341 C22,7.46236915 21.5389594,7 20.9726115,7 L20.9726115,7 Z M9.87675191,20.7327374 C8.98529978,20.7327374 8.26291727,20.0076117 8.26291727,19.11335 C8.26291727,18.2190884 8.98529978,17.4939627 9.87675191,17.4939627 C10.7679472,17.4939627 11.4905866,18.2190884 11.4905866,19.11335 C11.4905866,20.0076117 10.7679472,20.7327374 9.87675191,20.7327374 L9.87675191,20.7327374 Z M9.87675191,11.5060373 C8.98529978,11.5060373 8.26291727,10.7809116 8.26291727,9.88664997 C8.26291727,8.99213062 8.98529978,8.2672626 9.87675191,8.2672626 C10.7679472,8.2672626 11.4905866,8.99213062 11.4905866,9.88664997 C11.4905866,10.7809116 10.7679472,11.5060373 9.87675191,11.5060373 L9.87675191,11.5060373 Z M14.5,16.1451927 C13.6085479,16.1451927 12.8861654,15.4200669 12.8861654,14.5258053 C12.8861654,13.6312859 13.6085479,12.9064179 14.5,12.9064179 C15.3911953,12.9064179 16.1138346,13.6312859 16.1138346,14.5258053 C16.1138346,15.4200669 15.3911953,16.1451927 14.5,16.1451927 L14.5,16.1451927 Z M19.1232481,20.7327374 C18.231796,20.7327374 17.5094134,20.0076117 17.5094134,19.11335 C17.5094134,18.2190884 18.231796,17.4939627 19.1232481,17.4939627 C20.0144434,17.4939627 20.7370827,18.2190884 20.7370827,19.11335 C20.7370827,20.0076117 20.0144434,20.7327374 19.1232481,20.7327374 L19.1232481,20.7327374 Z M19.1232481,11.5060373 C18.231796,11.5060373 17.5094134,10.7809116 17.5094134,9.88664997 C17.5094134,8.99213062 18.231796,8.2672626 19.1232481,8.2672626 C20.0144434,8.2672626 20.7370827,8.99213062 20.7370827,9.88664997 C20.7370827,10.7809116 20.0144434,11.5060373 19.1232481,11.5060373 L19.1232481,11.5060373 Z" id="dices" fill="#FFFFFF"></path>
            </g>
        </g>
    </g>
</svg>