<?xml version="1.0" encoding="UTF-8" standalone="no"?>
<svg width="23px" height="21px" viewBox="0 0 23 21" version="1.1" xmlns="http://www.w3.org/2000/svg" xmlns:xlink="http://www.w3.org/1999/xlink">
    <!-- Generator: Sketch 3.6.1 (26313) - http://www.bohemiancoding.com/sketch -->
    <title>Cog</title>
    <desc>Created with Sketch.</desc>
    <defs></defs>
    <g id="Page-1" stroke="none" stroke-width="1" fill="none" fill-rule="evenodd">
        <g id="основной-экран" transform="translate(-344.000000, -31.000000)" fill="#000000">
            <path d="M362.569489,36.085042 C362.063721,35.4165271 361.465438,34.8218899 360.793905,34.320209 C361.026544,33.0728261 361.119063,32.2899073 361.119063,32.2899073 C361.12585,32.2359693 361.10059,32.1680623 361.051887,32.1320226 C361.051887,32.1320226 360.7177,31.8471212 359.768441,31.4441846 C358.819182,31.041248 358.382095,30.9987634 358.382095,30.9987634 C358.327684,30.9902973 358.252992,31.021256 358.221858,31.0601164 C358.221858,31.0601164 357.728012,31.6643273 356.998479,32.6886158 C356.511237,32.6053545 356.010574,32.561986 355.5,32.561986 C354.989171,32.561986 354.488439,32.6052296 354.001264,32.6882547 C353.271872,31.6641853 352.778143,31.0601164 352.778143,31.0601164 C352.744058,31.0177659 352.677662,30.9887645 352.617905,30.9987634 C352.617905,30.9987634 352.180819,31.041248 351.23156,31.4441846 C350.282301,31.8471212 349.948114,32.1320226 349.948114,32.1320226 C349.904227,32.1652819 349.874612,32.240516 349.880937,32.2899073 C349.880937,32.2899073 349.973327,33.0717339 350.205609,34.3175986 C349.408945,34.9123637 348.715683,35.6379824 348.157669,36.4625822 C346.892538,36.271545 346.099415,36.2057878 346.099415,36.2057878 C346.045273,36.2008876 345.978289,36.2285024 345.943971,36.2784338 C345.943971,36.2784338 345.670906,36.6223598 345.301344,37.5851029 C344.931781,38.547846 344.904577,38.9861489 344.904577,38.9861489 C344.898015,39.0408227 344.931561,39.114388 344.971485,39.1441478 C344.971485,39.1441478 345.617476,39.6355574 346.704696,40.3515143 C346.662465,40.7022674 346.640733,41.0593221 346.640733,41.4214444 L346.640733,41.5785562 C346.640733,42.1008648 346.686044,42.6126168 346.772931,43.1101142 C345.72705,43.880409 345.109209,44.4036441 345.109209,44.4036441 C345.06746,44.4384633 345.039622,44.5053548 345.050662,44.5649282 C345.050662,44.5649282 345.100769,45.0012065 345.520211,45.9432889 C345.939653,46.8853712 346.230343,47.2145347 346.230343,47.2145347 C346.264363,47.257835 346.340103,47.2861325 346.389376,47.2789458 C346.389376,47.2789458 347.177611,47.1718188 348.430511,46.9149587 C348.93628,47.5834736 349.534563,48.1781107 350.206096,48.6797916 C349.973457,49.9271741 349.880937,50.7100926 349.880937,50.7100926 C349.874151,50.7640306 349.899411,50.8319376 349.948114,50.8679774 C349.948114,50.8679774 350.282301,51.1528794 351.23156,51.5558159 C352.180819,51.9587525 352.617906,52.0012366 352.617906,52.0012366 C352.672317,52.0097026 352.747008,51.9787439 352.778143,51.9398835 C352.778143,51.9398835 353.271989,51.3356729 354.001521,50.3113848 C354.488763,50.3946461 354.989426,50.4380146 355.5,50.4380146 C356.01083,50.4380146 356.511562,50.3947709 356.998736,50.3117458 C357.728128,51.3358149 358.221857,51.9398835 358.221857,51.9398835 C358.255943,51.9822339 358.322338,52.0112354 358.382095,52.0012366 C358.382095,52.0012366 358.819182,51.9587525 359.768441,51.5558159 C360.7177,51.1528794 361.051886,50.8679774 361.051886,50.8679774 C361.095774,50.834718 361.125389,50.7594839 361.119063,50.7100926 C361.119063,50.7100926 361.026673,49.9282663 360.794392,48.6824021 C361.591055,48.0876369 362.284318,47.3620182 362.842331,46.5374183 C364.107462,46.7284554 364.900584,46.7942125 364.900584,46.7942125 C364.954727,46.7991127 365.021711,46.7714979 365.056029,46.7215665 C365.056029,46.7215665 365.329094,46.3776408 365.698657,45.4148977 C366.068219,44.4521545 366.095423,44.0138515 366.095423,44.0138515 C366.101985,43.9591776 366.068439,43.8856123 366.028515,43.8558525 C366.028515,43.8558525 365.382525,43.3644431 364.295304,42.6484864 C364.337536,42.2977332 364.359268,41.9406785 364.359268,41.5785562 L364.359268,41.4214444 C364.359268,40.8991357 364.313957,40.3873837 364.227069,39.8898862 C365.27295,39.1195917 365.89079,38.5963568 365.89079,38.5963568 C365.93254,38.5615376 365.960378,38.4946461 365.949338,38.4350727 C365.949338,38.4350727 365.899232,37.998794 365.47979,37.0567117 C365.060348,36.1146294 364.769657,35.7854661 364.769657,35.7854661 C364.735637,35.7421658 364.659897,35.7138683 364.610624,35.721055 C364.610624,35.721055 363.82239,35.828182 362.569489,36.085042 Z M355.5,36.8181833 C352.937085,36.8181833 350.859432,38.8962771 350.859432,41.458852 L350.859432,41.5411486 C350.859432,44.1041191 352.9423,46.1818173 355.5,46.1818173 C358.062916,46.1818173 360.140569,44.1037234 360.140569,41.5411486 L360.140569,41.458852 C360.140569,38.8958814 358.057701,36.8181833 355.5,36.8181833 Z" id="Cog"></path>
        </g>
    </g>
</svg>