<?xml version="1.0" encoding="UTF-8" standalone="no"?>
<svg width="17px" height="20px" viewBox="0 0 17 20" version="1.1" xmlns="http://www.w3.org/2000/svg" xmlns:xlink="http://www.w3.org/1999/xlink">
    <!-- Generator: Sketch 3.6.1 (26313) - http://www.bohemiancoding.com/sketch -->
    <title>Fill 1</title>
    <desc>Created with Sketch.</desc>
    <defs></defs>
    <g id="Page-1" stroke="none" stroke-width="1" fill="none" fill-rule="evenodd">
        <g id="настройки" transform="translate(-20.000000, -389.000000)" fill="#565656">
            <path d="M25.8511813,391.212546 L25.8511813,403.057019 C25.2432543,402.469644 24.3944872,402.108486 23.4678608,402.108486 C21.5506825,402.108486 20,403.651267 20,405.554117 C20,407.457303 21.5563404,409 23.4735187,409 C25.390697,409 26.9460241,407.462499 26.9460241,405.559649 C26.9460241,405.558392 26.9347928,405.561996 26.9347928,405.561996 L26.9321749,405.200837 L26.9321749,395.638058 L35.9170641,393.663211 L35.9170641,400.643401 C35.3091371,400.056026 34.4607078,399.694951 33.5338281,399.694951 C31.6165653,399.694951 30.0658828,401.237649 30.0658828,403.140499 C30.0658828,405.043349 31.6222232,406.586046 33.5394015,406.586046 C35.4542998,406.586046 36.9957777,405.047624 37,403.148042 L36.9980577,402.896598 L36.9980577,389 L25.8511813,391.212546 Z" id="Fill-1"></path>
        </g>
    </g>
</svg>