<?xml version="1.0" encoding="UTF-8" standalone="no"?>
<svg width="26px" height="28px" viewBox="0 0 26 28" version="1.1" xmlns="http://www.w3.org/2000/svg" xmlns:xlink="http://www.w3.org/1999/xlink">
    <!-- Generator: Sketch 3.6.1 (26313) - http://www.bohemiancoding.com/sketch -->
    <title>Копия people 3</title>
    <desc>Created with Sketch.</desc>
    <defs>
        <path id="path-1" d="M0.00251812375,0.00167664671 L0.00251812375,27.9581257 L25.3324089,27.9581257 L25.3324089,0.00167664671 L12.6674635,0.00167664671 L0.00251812375,0.00167664671 Z"></path>
    </defs>
    <g id="Page-1" stroke="none" stroke-width="1" fill="none" fill-rule="evenodd">
        <g id="Копия-people-3">
            <mask id="mask-2" fill="white">
                <use xlink:href="#path-1"></use>
            </mask>
            <g id="Clip-2"></g>
            <path d="M12.6645677,0.00167664671 C5.67085666,0.00494610778 0,5.6687006 0,12.6570898 L0,18.6191617 C0,18.9343713 0.147729927,19.2294192 0.399542302,19.4206407 L5.84544657,23.5485868 L5.84544657,26.9521377 C5.84544657,27.5086587 6.29530938,27.9581257 6.85269607,27.9581257 L7.66176923,27.9581257 C8.21915592,27.9581257 8.66901873,27.5086587 8.66901873,26.9521377 L8.66901873,25.5705389 C8.66901873,25.2185269 8.95440609,24.9334551 9.30706932,24.9334551 C9.65952271,24.9334551 9.94495204,25.2185269 9.94495204,25.5705389 L9.94495204,26.9521377 C9.94495204,27.5086587 10.3948148,27.9581257 10.9522015,27.9581257 L10.9858185,27.9581257 C11.5430373,27.9581257 11.993068,27.5086587 11.993068,26.9521377 L11.993068,25.5705389 C11.993068,25.2185269 12.2783294,24.9334551 12.6309507,24.9334551 L12.6980167,24.9334551 C13.050638,24.9334551 13.3360673,25.2185269 13.3360673,25.5705389 L13.3360673,26.9521377 C13.3360673,27.5086587 13.7858882,27.9581257 14.3433168,27.9581257 L14.3767659,27.9581257 C14.9341526,27.9581257 15.3840154,27.5086587 15.3840154,26.9521377 L15.3840154,25.5705389 C15.3840154,25.2185269 15.6694028,24.9334551 16.022066,24.9334551 C16.3745194,24.9334551 16.6599487,25.2185269 16.6599487,25.5705389 L16.6599487,26.9521377 C16.6599487,27.5086587 17.1098115,27.9581257 17.6671982,27.9581257 L18.4796708,27.9581257 C19.0370995,27.9581257 19.4869203,27.5086587 19.4869203,26.9521377 L19.4869203,23.5451497 L24.9326987,19.4172036 C25.1845111,19.2261497 25.3324089,18.9311018 25.3324089,18.6157246 L25.3324089,12.6536527 C25.3289674,5.6687006 19.6580688,0.00494610778 12.6645677,0.00167664671 L12.6645677,0.00167664671 Z M13.6583452,21.2816766 L11.6740217,21.2816766 C11.2140025,21.2816766 10.9218581,20.7888263 11.143537,20.3863473 L12.1373145,18.5855868 C12.3657083,18.1698623 12.9667005,18.1698623 13.1948845,18.5855868 L14.188704,20.3863473 C14.4070673,20.7888263 14.114923,21.2816766 13.6583452,21.2816766 L13.6583452,21.2816766 Z M14.4674184,15.229024 L14.4674184,14.6813965 L21.4510988,12.880127 C21.4510988,12.880127 21.4510988,15.1091209 21.4510988,15.229024 C21.4510988,17.1571677 19.8899041,18.7164072 17.9593425,18.7164072 C16.0320545,18.7164072 14.4674184,17.1537305 14.4674184,15.229024 Z M10.9836805,15.3505736 L10.9836805,14.8029462 L4.00000005,13.0016766 C4.00000005,13.0016766 4,15.2306706 4,15.3505736 C4,17.2787173 5.56119476,18.8379569 7.4917563,18.8379569 C9.41904428,18.8379569 10.9836805,17.2752802 10.9836805,15.3505736 Z" id="Fill-1" fill="#272727" mask="url(#mask-2)"></path>
        </g>
    </g>
</svg>