<?xml version="1.0" encoding="UTF-8" standalone="no"?>
<svg width="23px" height="23px" viewBox="0 0 23 23" version="1.1" xmlns="http://www.w3.org/2000/svg" xmlns:xlink="http://www.w3.org/1999/xlink">
    <!-- Generator: Sketch 3.6.1 (26313) - http://www.bohemiancoding.com/sketch -->
    <title>dices copy</title>
    <desc>Created with Sketch.</desc>
    <defs></defs>
    <g id="Page-1" stroke="none" stroke-width="1" fill="none" fill-rule="evenodd">
        <path d="M4.99065745,0 C2.23439345,0 0,2.24721412 0,4.99065745 L0,18.0093426 C0,20.7656066 2.24721412,23 4.99065745,23 L18.0093426,23 C20.7656066,23 23,20.7527859 23,18.0093426 L23,4.99065745 C23,2.23439345 20.7527859,0 18.0093426,0 L4.99065745,0 Z M5.4110196,20.056864 C4.04412633,20.056864 2.93647315,18.9450045 2.93647315,17.5738034 C2.93647315,16.2026022 4.04412633,15.0907427 5.4110196,15.0907427 C6.77751903,15.0907427 7.88556605,16.2026022 7.88556605,17.5738034 C7.88556605,18.9450045 6.77751903,20.056864 5.4110196,20.056864 L5.4110196,20.056864 Z M2.93647315,5.42619662 C2.93647315,4.05460028 4.04412633,2.94313598 5.4110196,2.94313598 C6.77751903,2.94313598 7.88556605,4.05460028 7.88556605,5.42619662 C7.88556605,6.79739778 6.77751903,7.90925726 5.4110196,7.90925726 C4.04412633,7.90925726 2.93647315,6.79739778 2.93647315,5.42619662 Z M11.5,14.0226288 C10.1331067,14.0226288 9.02545355,12.9107693 9.02545355,11.5395681 C9.02545355,10.1679718 10.1331067,9.05650749 11.5,9.05650749 C12.8664994,9.05650749 13.9745465,10.1679718 13.9745465,11.5395681 C13.9745465,12.9107693 12.8664994,14.0226288 11.5,14.0226288 L11.5,14.0226288 Z M17.5889804,20.056864 C16.2220871,20.056864 15.114434,18.9450045 15.114434,17.5738034 C15.114434,16.2026022 16.2220871,15.0907427 17.5889804,15.0907427 C18.9554798,15.0907427 20.0635269,16.2026022 20.0635269,17.5738034 C20.0635269,18.9450045 18.9554798,20.056864 17.5889804,20.056864 L17.5889804,20.056864 Z M17.5889804,7.90925726 C16.2220871,7.90925726 15.114434,6.79739778 15.114434,5.42619662 C15.114434,4.05460028 16.2220871,2.94313598 17.5889804,2.94313598 C18.9554798,2.94313598 20.0635269,4.05460028 20.0635269,5.42619662 C20.0635269,6.79739778 18.9554798,7.90925726 17.5889804,7.90925726 L17.5889804,7.90925726 Z" id="dices-copy" fill="#FF6500"></path>
    </g>
</svg>