<?xml version="1.0" encoding="UTF-8" standalone="no"?>
<svg width="24px" height="24px" viewBox="0 0 24 24" version="1.1" xmlns="http://www.w3.org/2000/svg" xmlns:xlink="http://www.w3.org/1999/xlink">
    <!-- Generator: Sketch 3.6.1 (26313) - http://www.bohemiancoding.com/sketch -->
    <title>Копия shape Copy 2</title>
    <desc>Created with Sketch.</desc>
    <defs></defs>
    <g id="Page-1" stroke="none" stroke-width="1" fill="none" fill-rule="evenodd">
        <g id="Копия-shape-Copy-2" fill="#FF6500">
            <path d="M0,10.0341801 L9.94226074,10.0341801 L9.94226074,0.357142857 L4.00092165,0.357142857 C1.79127364,0.357142857 0,2.15464034 0,4.349034 L0,10.0341801 Z" id="Fill-1"></path>
            <path d="M13.1520192,10.0311283 L23.0511472,10.0311283 L23.0511472,4.34777512 C23.0511472,2.14380978 21.2584898,0.357142857 19.0533268,0.357142857 L13.1520192,0.357142857 L13.1520192,10.0311283 Z" id="Fill-2"></path>
            <path d="M0,19.0169251 C0,21.2279082 1.79214252,23.0202641 3.99066889,23.0202641 L10.024292,23.0202641 L10.024292,13.2125 L0,13.2125 L0,19.0169251 Z" id="Fill-3"></path>
            <path d="M13.1520192,22.976807 L19.0187367,22.976807 C21.2268986,22.976807 23.0169675,21.1858826 23.0169675,18.9771164 L23.0169675,13.2125 L13.1520192,13.2125 L13.1520192,22.976807 Z" id="Fill-4"></path>
        </g>
    </g>
</svg>