<?xml version="1.0" encoding="UTF-8" standalone="no"?>
<svg width="26px" height="23px" viewBox="0 0 26 23" version="1.1" xmlns="http://www.w3.org/2000/svg" xmlns:xlink="http://www.w3.org/1999/xlink">
    <!-- Generator: Sketch 3.6.1 (26313) - http://www.bohemiancoding.com/sketch -->
    <title>Group 7 Copy</title>
    <desc>Created with Sketch.</desc>
    <defs></defs>
    <g id="Page-1" stroke="none" stroke-width="1" fill="none" fill-rule="evenodd">
        <g id="Group-7-Copy" transform="translate(-2.000000, -2.000000)">
            <g id="Копия-interface" transform="translate(14.307051, 13.495891) rotate(-170.000000) translate(-14.307051, -13.495891) translate(1.807051, 1.995891)" fill="#565656">
                <path d="M1.47642518,20.2362827 L3.07630641,20.9045724 L3.07630641,10.1187648 L0.17280285,17.1187055 C-0.316627078,18.3369359 0.269536817,19.7340855 1.47642518,20.2362827 L1.47642518,20.2362827 Z M24.7682898,15.8162114 L18.8432304,1.51805226 C18.4732779,0.623159145 17.5999406,0.0731591449 16.6831948,0.0492874109 C16.3714371,0.0492874109 16.0511283,0.0970308788 15.7393705,0.22695962 L6.93592637,3.87036817 C6.03984561,4.24245843 5.48895487,5.10118765 5.46502375,6.02209026 C5.45368171,6.34334917 5.5128266,6.66668646 5.645962,6.9763658 L11.570962,21.2745249 C11.9388955,22.181057 12.8224466,22.7319477 13.7581948,22.7433492 C14.0657363,22.7433492 14.3774941,22.6841449 14.6748812,22.5647268 L23.4669834,18.922209 C24.684323,18.4190618 25.2704869,17.0230998 24.7682898,15.8162114 L24.7682898,15.8162114 Z M5.47850356,20.35481 C5.47850356,21.6686461 6.55225653,22.7435273 7.8672209,22.7435273 L9.6,22.7435273 L5.47850356,12.7819477 L5.47850356,20.35481 Z" id="Fill-1"></path>
            </g>
            <path d="M19,16.0073242 L22.6477051,20.8339844 C22.6477051,20.8339844 20.1634928,22.1257324 19,22.1257324 C17.7954102,22.1257324 15.543457,20.8339844 15.543457,20.8339844 L19,16.0073242 Z" id="Triangle-1" fill="#6A6A6A"></path>
            <path d="M21.7791042,13.7822274 L25.3546824,18.5551027 C25.3546824,18.5551027 22.942597,19.8468507 21.7791042,19.8468507 C20.5745144,19.8468507 18.3225612,18.5551027 18.3225612,18.5551027 L21.7791042,13.7822274 Z" id="Triangle-1-Copy" fill="#9C9C9C" transform="translate(21.838622, 16.814539) rotate(-73.000000) translate(-21.838622, -16.814539) "></path>
            <path d="M20.7228727,10.3899073 L24.1987399,15.3860636 C24.1987399,15.3860636 21.8863655,16.5156398 20.7228727,16.5156398 C19.5182828,16.5156398 17.2663297,15.2238917 17.2663297,15.2238917 L20.7228727,10.3899073 Z" id="Triangle-1-Copy-2" fill="#DADADA" transform="translate(20.732535, 13.452774) rotate(-145.000000) translate(-20.732535, -13.452774) "></path>
            <path d="M17.1971197,10.2802576 L20.8448247,15.246284 C20.8448247,15.246284 18.3606125,16.5380321 17.1971197,16.5380321 C15.9925298,16.5380321 13.5255422,15.246284 13.5255422,15.246284 L17.1971197,10.2802576 Z" id="Triangle-1-Copy-3" fill="#FFFFFF" transform="translate(17.185183, 13.409145) rotate(143.000000) translate(-17.185183, -13.409145) "></path>
            <path d="M16.1028983,13.8208105 L19.7506034,18.7062147 C19.7506034,18.7062147 17.2663912,19.9979628 16.1028983,19.9979628 C14.8983085,19.9979628 12.6463553,18.7062147 12.6463553,18.7062147 L16.1028983,13.8208105 Z" id="Triangle-1-Copy-4" fill="#323232" transform="translate(16.198479, 16.909387) rotate(72.000000) translate(-16.198479, -16.909387) "></path>
            <circle id="Oval-58" stroke="#979797" cx="19" cy="16" r="6"></circle>
        </g>
    </g>
</svg>