<?xml version="1.0" encoding="UTF-8" standalone="no"?>
<svg width="26px" height="22px" viewBox="0 0 26 22" version="1.1" xmlns="http://www.w3.org/2000/svg" xmlns:xlink="http://www.w3.org/1999/xlink">
    <!-- Generator: Sketch 3.6.1 (26313) - http://www.bohemiancoding.com/sketch -->
    <title>Копия interface Copy</title>
    <desc>Created with Sketch.</desc>
    <defs></defs>
    <g id="Page-1" stroke="none" stroke-width="1" fill="none" fill-rule="evenodd">
        <g id="Копия-interface-Copy" transform="translate(11.185601, 11.499976) rotate(-164.000000) translate(-11.185601, -11.499976) translate(-1.314399, -0.000024)" fill="#FF6500">
            <path d="M1.47643771,20.1892024 L3.07631895,20.8575653 L3.07631895,10.0705784 L0.172815382,17.0712843 C-0.316614546,18.2896479 0.269549349,19.6869503 1.47643771,20.1892024 L1.47643771,20.1892024 Z M24.7683023,15.7686479 L18.8432429,1.46892543 C18.4732904,0.573934478 17.5999531,0.023874344 16.6832073,2.27373675e-13 C16.3714496,2.27373675e-13 16.0511408,0.047748688 15.7393831,0.177691635 L6.9359389,3.82149854 C6.03985814,4.19362948 5.4889674,5.05245259 5.46503629,5.97345589 C5.45369424,6.29474992 5.51283914,6.61812256 5.64597453,6.92783576 L11.5709745,21.2275582 C11.938908,22.1341894 12.8224591,22.6851403 13.7582073,22.696543 C14.0657489,22.696543 14.3775066,22.6373323 14.6748938,22.5179012 L23.4669959,18.8749851 C24.6843356,18.3717828 25.2704995,16.9756682 24.7683023,15.7686479 L24.7683023,15.7686479 Z M5.4785161,20.3077427 C5.4785161,21.6217224 6.55226906,22.6967212 7.86723343,22.6967212 L9.60001253,22.6967212 L5.4785161,12.7340525 L5.4785161,20.3077427 Z" id="Fill-1"></path>
        </g>
    </g>
</svg>