<?xml version="1.0" encoding="UTF-8" standalone="no"?>
<svg width="26px" height="22px" viewBox="0 0 26 22" version="1.1" xmlns="http://www.w3.org/2000/svg" xmlns:xlink="http://www.w3.org/1999/xlink">
    <!-- Generator: Sketch 3.6.1 (26313) - http://www.bohemiancoding.com/sketch -->
    <title>square copy</title>
    <desc>Created with Sketch.</desc>
    <defs></defs>
    <g id="Page-1" stroke="none" stroke-width="1" fill="none" fill-rule="evenodd">
        <path d="M5.57293118,12.8217334 C5.57293118,13.4034583 5.07211009,13.7449367 4.4825455,13.7449367 L1.15627378,13.7449367 C0.566709193,13.7449367 0,13.4034583 0,12.8217334 L0,9.40565696 C0,8.8204065 0.48147775,8.34885681 1.07104234,8.34885681 L4.4825455,8.34885681 C5.07211009,8.34885681 5.57293118,8.82040649 5.57293118,9.40565694 L5.57293118,12.8217334 Z M9.32418677,8.34885681 C8.73104906,8.34885681 8.37884568,8.60560453 8.37884568,9.19085499 L8.37884568,12.8180968 C8.37884568,13.3998216 8.73104906,13.7498602 9.32418677,13.7498602 L25.0320913,13.7498602 C25.5908909,13.7498602 25.9027822,13.4354003 25.9338111,12.9072551 C25.9355195,12.8781777 25.9363764,12.8484527 25.9363764,12.8180968 L25.9363764,9.31159142 C25.9363764,8.72634096 25.4548979,8.34885681 24.8617602,8.34885681 L9.32418677,8.34885681 Z M1.07104233,0 C0.481477738,0 0,0.380739403 0,0.941722192 L0,4.57629317 C0,5.13727596 0.481477738,5.5035248 1.07104233,5.5035248 L4.4705246,5.5035248 C5.0600892,5.5035248 5.57735396,5.13727596 5.57735396,4.57629317 L5.57735396,0.941722192 C5.57735396,0.384118818 5.0600892,0 4.4705246,0 L1.07104233,0 Z M9.30950093,0.0189105336 C8.71636322,0.0189105336 8.37181459,0.339575341 8.37181459,0.924825798 L8.37181459,4.62782158 C8.37181459,5.21307204 8.71636322,5.50134276 9.30950093,5.50134276 L24.8012556,5.50134276 C25.3908202,5.50134276 25.9363759,5.21307204 25.9363759,4.62782158 L25.9363764,0.924825798 C25.9363764,0.343100946 25.3943933,0.0189105336 24.8012556,0.0189105336 L9.30950093,0.0189105336 Z M1.07104233,16.4941254 C0.481477738,16.4941254 0,16.8420396 0,17.4272901 L0,20.9396742 C0,21.5249247 0.48147775,22 1.07104234,22 L4.50114386,21.9999999 C5.09070845,21.9999999 5.5660135,21.5249247 5.5660135,20.9396742 L5.5660135,17.4272901 C5.5660135,16.8420396 5.09070845,16.4941254 4.50114386,16.4941254 L1.07104233,16.4941254 Z M9.35423903,16.5159453 C8.76110132,16.5159453 8.3794694,16.8420396 8.3794694,17.4272901 L8.3794694,20.9396742 C8.3794694,21.5249247 8.76110132,21.9999999 9.35423903,21.9999999 L24.8653333,22 C25.4548979,22 26,21.5249248 26,20.9396744 L26,20.1954987 L26,17.4272901 C26,16.8420396 25.4584711,16.5159453 24.8653333,16.5159453 L9.35423903,16.5159453 Z" id="square-copy" fill="#FF6500"></path>
    </g>
</svg>